<?xml version="1.0" standalone="no"?>
<!DOCTYPE svg PUBLIC "-//W3C//DTD SVG 20010904//EN"
 "http://www.w3.org/TR/2001/REC-SVG-20010904/DTD/svg10.dtd">
<svg version="1.0" xmlns="http://www.w3.org/2000/svg"
 width="980.000000pt" height="680.000000pt" viewBox="0 0 980.000000 680.000000"
 preserveAspectRatio="xMidYMid meet">
  <defs>
    <linearGradient id="progress" x1="0" y1="1" x2="0" y2="0">
      <stop id="stop1" offset="0" stop-color="#4CAF50"/>
      <stop id="stop2" offset="0" stop-color="lighgreen"/>
    </linearGradient>
  </defs>
<g transform="translate(0.000000,680.000000) scale(0.100000,-0.100000)"
fill="url(#progress)" stroke="none">
<path d="M2460 6793 c-165 -25 -315 -122 -435 -280 -77 -102 -203 -350 -264
-520 -22 -62 -138 -427 -257 -810 -119 -384 -219 -701 -223 -705 -3 -4 -36 20
-73 53 l-68 61 0 200 c0 223 -5 244 -66 273 -20 9 -209 36 -503 71 -458 54
-471 55 -507 38 -21 -10 -42 -30 -51 -50 -15 -31 -13 -42 52 -306 37 -150 74
-285 81 -300 8 -14 26 -36 40 -47 26 -20 36 -21 411 -21 l384 0 19 -45 c32
-75 34 -72 -68 -115 -433 -182 -724 -554 -721 -924 0 -56 19 -279 42 -496 l42
-395 4603 -3 c3677 -2 4603 0 4607 10 10 32 85 815 85 895 0 363 -302 741
-732 919 -91 37 -90 35 -58 109 l19 45 385 0 384 0 31 26 c36 30 46 58 126
383 58 233 58 234 40 267 -10 18 -33 40 -51 49 -32 15 -58 13 -471 -35 -539
-62 -533 -61 -572 -106 l-31 -35 0 -202 0 -203 -42 -40 c-73 -67 -98 -88 -103
-83 -2 3 -90 282 -195 620 -287 925 -312 996 -422 1212 -141 277 -317 439
-523 482 -60 13 -400 14 -2480 13 -1325 0 -2421 -2 -2435 -5z m4819 -549 c36
-21 101 -118 150 -224 72 -156 138 -351 338 -995 l199 -640 -3065 -3 c-1685
-1 -3066 0 -3068 2 -6 6 404 1316 452 1441 88 233 184 403 239 425 12 5 1080
9 2374 9 2153 1 2356 0 2381 -15z m-6087 -2589 c224 -33 493 -118 703 -220
154 -75 232 -125 307 -198 84 -80 103 -123 103 -233 0 -101 -9 -120 -69 -151
-85 -44 -435 -62 -846 -44 -489 22 -719 80 -816 208 -43 56 -54 116 -54 286 0
136 2 144 28 192 45 82 146 142 275 164 83 14 264 12 369 -4z m7860 -14 c89
-28 156 -75 193 -135 29 -48 30 -53 33 -193 4 -171 -7 -238 -52 -296 -97 -128
-328 -187 -821 -208 -414 -18 -755 0 -841 44 -60 31 -69 50 -69 151 0 109 19
152 99 230 178 173 618 358 1006 421 127 21 365 14 452 -14z"/>
<path d="M310 2323 c0 -5 23 -222 52 -483 l51 -475 6 -520 6 -520 27 -58 c57
-121 188 -223 325 -252 93 -20 433 -20 526 0 137 29 268 131 325 252 l27 58 3
488 3 487 3234 0 3235 0 0 -422 c1 -233 5 -453 9 -490 25 -188 182 -344 381
-378 46 -8 144 -10 283 -8 228 5 271 14 371 72 60 35 143 127 174 193 l27 58
6 520 5 520 47 435 c25 239 49 456 53 483 l6 47 -4591 0 c-2525 0 -4591 -3
-4591 -7z m5812 -323 c20 -6 50 -26 67 -46 31 -34 31 -36 31 -148 0 -130 -11
-154 -84 -187 -39 -18 -94 -19 -1232 -19 -862 0 -1200 3 -1225 11 -19 7 -49
25 -66 42 l-33 31 0 122 c0 115 1 122 25 148 54 58 -13 55 1285 56 782 0 1208
-4 1232 -10z"/>
</g>
</svg>
